<?xml version="1.0" encoding="UTF-8"?>
<svg xmlns="http://www.w3.org/2000/svg" version="1.2" baseProfile="tiny-ps" viewBox="0 0 512 512">
  <rect width="512" height="512" fill="#0B0D0C"/>
  <g transform="translate(36 52) scale(0.92)">
    <path fill="#F5F5F5" d="M325.944 0C370.201 0.000109142 403.892 9.57163 427.017 28.7148C449.344 47.0604 460.508 73.3826 460.508 107.681C460.508 155.539 438.778 187.644 395.319 203.996C450.739 217.955 478.449 252.652 478.449 308.088C478.449 343.184 466.887 370.303 443.762 389.446C419.839 408.988 385.351 418.76 340.298 418.76H0V0H325.944ZM202.363 54.458C198.95 54.458 196.468 56.9237 196.468 60.3135V87.4307C156.754 87.739 125.418 119.172 125.418 158.308C125.418 197.444 157.065 229.492 196.778 229.492H251.385C256.969 229.492 261.003 233.499 261.003 238.737C261.003 244.284 256.969 248.29 251.385 248.29L131.313 248.599C127.59 248.599 125.418 251.064 125.418 254.146V321.632C125.418 325.022 127.59 327.487 131.313 327.487H196.468V354.605C196.468 357.995 198.951 360.46 202.363 360.46H234.94C238.043 360.46 240.836 357.995 240.836 354.605V326.871C277.447 322.557 305.37 292.048 304.439 255.069C303.819 216.55 272.792 185.426 233.079 185.426H179.094C173.819 185.426 169.785 181.419 169.785 176.181C169.785 170.942 173.819 166.628 179.094 166.628L298.854 166.319C302.267 166.319 304.439 163.854 304.439 160.772V93.2861C304.439 89.8964 302.267 87.4307 298.854 87.4307H240.836V60.3135C240.836 56.9237 238.043 54.458 234.94 54.458H202.363Z"/>
  </g>
</svg>
