<svg width="22" height="21" viewBox="0 0 22 21" fill="none" xmlns="http://www.w3.org/2000/svg">
<path d="M20.0026 19.595H1.92753C1.21785 19.595 0.642578 19.0197 0.642578 18.31V5.83168H21.2875V18.31C21.2875 19.0197 20.7123 19.595 20.0026 19.595Z" stroke="#929292" stroke-width="1.28496" stroke-miterlimit="10" stroke-linejoin="round"/>
<path d="M7.5248 12.7132H4.08398V16.1541H7.5248V12.7132Z" stroke="#929292" stroke-width="1.28496" stroke-miterlimit="10" stroke-linejoin="round"/>
<path d="M10.9642 12.7132H7.52344V16.1541H10.9642V12.7132Z" stroke="#929292" stroke-width="1.28496" stroke-miterlimit="10" stroke-linejoin="round"/>
<path d="M14.4057 12.7132H10.9648V16.1541H14.4057V12.7132Z" stroke="#929292" stroke-width="1.28496" stroke-miterlimit="10" stroke-linejoin="round"/>
<path d="M17.8471 12.7132H14.4062V16.1541H17.8471V12.7132Z" stroke="#929292" stroke-width="1.28496" stroke-miterlimit="10" stroke-linejoin="round"/>
<path d="M7.5248 9.27232H4.08398V12.7131H7.5248V9.27232Z" stroke="#929292" stroke-width="1.28496" stroke-miterlimit="10" stroke-linejoin="round"/>
<path d="M10.9642 9.27232H7.52344V12.7131H10.9642V9.27232Z" stroke="#929292" stroke-width="1.28496" stroke-miterlimit="10" stroke-linejoin="round"/>
<path d="M14.4057 9.27232H10.9648V12.7131H14.4057V9.27232Z" stroke="#929292" stroke-width="1.28496" stroke-miterlimit="10" stroke-linejoin="round"/>
<path d="M17.8471 9.27232H14.4062V12.7131H17.8471V9.27232Z" stroke="#929292" stroke-width="1.28496" stroke-miterlimit="10" stroke-linejoin="round"/>
<path d="M20.0026 1.91366H1.92753C1.21785 1.91366 0.642578 2.48893 0.642578 3.19861V5.83179H21.2875V3.19861C21.2875 2.48893 20.7123 1.91366 20.0026 1.91366Z" stroke="#929292" stroke-width="1.28496" stroke-miterlimit="10" stroke-linejoin="round"/>
<path d="M4.69922 3.18457V0.642543" stroke="#929292" stroke-width="1.28496" stroke-miterlimit="10" stroke-linecap="round" stroke-linejoin="round"/>
<path d="M17.2656 3.18457V0.642543" stroke="#929292" stroke-width="1.28496" stroke-miterlimit="10" stroke-linecap="round" stroke-linejoin="round"/>
</svg>
