<svg width="21" height="21" viewBox="0 0 21 21" fill="none" xmlns="http://www.w3.org/2000/svg">
<g clip-path="url(#clip0_500_499)">
<path fill-rule="evenodd" clip-rule="evenodd" d="M10.0736 -0.652344C9.21494 -0.652344 8.38504 -0.326135 7.75661 0.26056C6.44698 1.4824 3.63583 4.10934 2.17749 5.46838C1.40034 6.1942 0.958984 7.21024 0.958984 8.27377V16.6175C0.958984 17.3807 1.26121 18.1128 1.80329 18.653C2.34058 19.1926 3.07454 19.4958 3.83729 19.4958H16.31C17.0727 19.4958 17.8067 19.1926 18.344 18.653C18.8861 18.1128 19.1883 17.3807 19.1883 16.6175C19.1883 14.2477 19.1883 10.2843 19.1883 8.27377C19.1883 7.21024 18.7469 6.1942 17.9698 5.46838C16.5114 4.10934 13.7003 1.4824 12.3907 0.26056C11.7622 -0.326135 10.9323 -0.652344 10.0736 -0.652344ZM12.9519 17.577V12.3001C12.9519 11.5052 12.3091 10.8609 11.5128 10.8609C10.6349 10.8609 9.51236 10.8609 8.63448 10.8609C7.83814 10.8609 7.19532 11.5052 7.19532 12.3001V17.577H12.9519Z" fill="#929292"/>
</g>
<defs>
<clipPath id="clip0_500_499">
<rect width="20.1482" height="20.1482" fill="white"/>
</clipPath>
</defs>
</svg>
