<svg width="20" height="20" viewBox="0 0 20 20" fill="none" xmlns="http://www.w3.org/2000/svg">
<path d="M18.5698 1.28391H16.6096C16.6194 1.04369 16.6245 0.802469 16.6245 0.560462C16.6245 0.250937 16.3736 0 16.0641 0H3.06625C2.75673 0 2.50579 0.250937 2.50579 0.560462C2.50579 0.802469 2.51091 1.04373 2.52073 1.28391H0.560462C0.250937 1.28391 0 1.53484 0 1.84437V3.04902C0 6.35041 2.3854 9.10493 5.52313 9.68011C5.79189 9.97379 6.07425 10.2386 6.36868 10.4717C7.33585 11.2375 7.89056 12.3664 7.89056 13.569V15.7677H5.76073C5.4512 15.7677 5.20026 16.0186 5.20026 16.3281V18.0095H4.6398C4.33028 18.0095 4.07934 18.2604 4.07934 18.57C4.07934 18.8795 4.33028 19.1304 4.6398 19.1304H14.4906C14.8001 19.1304 15.0511 18.8795 15.0511 18.57C15.0511 18.2604 14.8001 18.0095 14.4906 18.0095H13.9301V16.3281C13.9301 16.0186 13.6792 15.7677 13.3697 15.7677H11.2398V13.569C11.2398 12.3664 11.7945 11.2375 12.7617 10.4717C13.0561 10.2386 13.3384 9.97376 13.6072 9.68011C16.7449 9.10493 19.1303 6.35041 19.1303 3.04902V1.84437C19.1303 1.53484 18.8794 1.28391 18.5698 1.28391ZM1.12092 3.04902V2.40483H2.60252C2.75269 3.82754 3.07596 5.19137 3.55931 6.42054C3.80554 7.04673 4.08958 7.62905 4.40613 8.16104C2.46943 7.27267 1.12092 5.31546 1.12092 3.04902ZM18.0094 3.04902C18.0094 5.3155 16.6609 7.2727 14.7242 8.16107C15.0407 7.62908 15.3248 7.04676 15.571 6.42058C16.0543 5.19141 16.3776 3.82758 16.5278 2.40487H18.0093L18.0094 3.04902Z" fill="url(#paint0_linear_500_523)"/>
<defs>
<linearGradient id="paint0_linear_500_523" x1="4.31978" y1="4.01122" x2="17.8962" y2="11.4937" gradientUnits="userSpaceOnUse">
<stop stop-color="#B1EB0B"/>
<stop offset="1" stop-color="#648506"/>
</linearGradient>
</defs>
</svg>
