<svg width="18" height="21" viewBox="0 0 18 21" fill="none" xmlns="http://www.w3.org/2000/svg">
<path d="M17.2595 17.2596C17.2595 18.3762 16.3024 19.2057 14.3564 19.7162C12.8888 20.1309 10.9108 20.3223 8.80523 20.3223C7.91195 20.3542 0 20.2585 0 17.2915V17.2596C0.223321 12.6656 4.01978 9.06055 8.64572 9.06055C13.2398 9.06055 17.0362 12.6656 17.2595 17.2596Z" fill="#929292"/>
<path d="M4.78516 3.82836C4.78516 1.72276 6.50792 0 8.61352 0C10.7191 0 12.4419 1.72276 12.4419 3.82836C12.4419 5.93396 10.7191 7.65672 8.61352 7.65672C6.50792 7.65672 4.78516 5.93396 4.78516 3.82836Z" fill="#929292"/>
</svg>
