<svg width="22" height="22" viewBox="0 0 22 22" fill="none" xmlns="http://www.w3.org/2000/svg">
<path d="M3.20898 9.16699H18.7923V18.792C18.7923 19.2983 18.382 19.7087 17.8757 19.7087H4.12565C3.61939 19.7087 3.20898 19.2983 3.20898 18.792V9.16699Z" stroke="#929292" stroke-width="1.55" stroke-linejoin="round"/>
<path d="M2.29102 5.95801C2.29102 5.45175 2.70142 5.04134 3.20768 5.04134H18.791C19.2973 5.04134 19.7077 5.45175 19.7077 5.95801V9.16634H2.29102V5.95801Z" stroke="#929292" stroke-width="1.55" stroke-linejoin="round"/>
<path d="M11 5.04199V19.7087" stroke="#929292" stroke-width="1.55" stroke-linecap="round"/>
<path d="M11.0007 5.04186C10.2368 3.20853 8.94575 1.83353 7.56315 1.83353C6.51876 1.83353 5.95898 2.49305 5.95898 3.20853C5.95898 4.37409 7.21438 5.04186 9.00898 5.04186H11.0007Z" stroke="#929292" stroke-width="1.55" stroke-linejoin="round"/>
<path d="M11 5.04186C11.7638 3.20853 13.0549 1.83353 14.4375 1.83353C15.4819 1.83353 16.0417 2.49305 16.0417 3.20853C16.0417 4.37409 14.7863 5.04186 12.9917 5.04186H11Z" stroke="#929292" stroke-width="1.55" stroke-linejoin="round"/>
</svg>
