<svg width="21" height="21" viewBox="0 0 21 21" fill="none" xmlns="http://www.w3.org/2000/svg">
<path d="M20.3261 19.907H18.8208V11.8688C18.8208 11.5628 18.5694 11.3156 18.2676 11.3156H13.3977V19.907H12.9786V7.53954C12.9786 7.2336 12.7314 6.98633 12.4254 6.98633H8.11294C7.80701 6.98633 7.55554 7.23361 7.55554 7.53954V19.907H7.13645V13.9014H2.27077C1.96484 13.9014 1.71756 14.1487 1.71756 14.4546V19.907H0.209547C0.0937232 19.907 0 20.0007 0 20.1166C0 20.2324 0.0937232 20.3261 0.209547 20.3261H20.3261C20.4419 20.3261 20.5356 20.2324 20.5356 20.1166C20.5356 20.0007 20.4419 19.907 20.3261 19.907Z" fill="#929292"/>
<path d="M8.59697 3.59107C8.64043 3.63342 8.66028 3.69446 8.64999 3.75426L8.35122 5.49635C8.32539 5.64699 8.48347 5.76184 8.61874 5.69073L10.1832 4.86822C10.2369 4.83998 10.3011 4.83998 10.3548 4.86822L11.9193 5.69073C12.0546 5.76184 12.2127 5.64699 12.1868 5.49635L11.888 3.75426C11.8778 3.69446 11.8976 3.63342 11.9411 3.59107L13.2068 2.35732C13.3162 2.25065 13.2558 2.06479 13.1046 2.04282L11.3555 1.78866C11.2954 1.77994 11.2435 1.74221 11.2166 1.6878L10.4344 0.102791C10.3667 -0.0342637 10.1713 -0.0342637 10.1037 0.102791L9.32145 1.6878C9.2946 1.74221 9.24267 1.77994 9.18261 1.78866L7.43346 2.04282C7.28223 2.06479 7.22184 2.25065 7.33127 2.35732L8.59697 3.59107Z" fill="#929292"/>
<path d="M3.36804 10.5157C3.39554 10.5425 3.4081 10.5812 3.4016 10.619L3.21242 11.7221C3.19607 11.8174 3.29616 11.8901 3.3818 11.8451L4.37239 11.3243C4.40641 11.3065 4.44703 11.3065 4.48106 11.3243L5.47162 11.8451C5.55729 11.8901 5.65738 11.8174 5.64101 11.7221L5.45185 10.619C5.44535 10.5812 5.45788 10.5425 5.48541 10.5157L6.28681 9.73453C6.35611 9.66697 6.31787 9.5493 6.2221 9.53539L5.11461 9.37447C5.07657 9.36894 5.0437 9.34505 5.02669 9.3106L4.53142 8.30704C4.48858 8.22025 4.36485 8.22025 4.32203 8.30704L3.82673 9.3106C3.80975 9.34505 3.77688 9.36894 3.73884 9.37447L2.63133 9.53539C2.53558 9.5493 2.49734 9.66697 2.56664 9.73453L3.36804 10.5157Z" fill="#929292"/>
<path d="M15.0497 7.98589C15.0772 8.01273 15.0897 8.05135 15.0832 8.08923L14.8941 9.19225C14.8777 9.28763 14.9778 9.36036 15.0634 9.31534L16.054 8.79454C16.0881 8.77666 16.1287 8.77666 16.1627 8.79454L17.1533 9.31534C17.2389 9.36036 17.339 9.28763 17.3226 9.19225L17.1335 8.08923C17.127 8.05135 17.1395 8.01273 17.167 7.98589L17.9685 7.20472C18.0377 7.13719 17.9995 7.0195 17.9037 7.00558L16.7962 6.84466C16.7582 6.83914 16.7253 6.81525 16.7083 6.78079L16.2131 5.77723C16.1702 5.69047 16.0465 5.69047 16.0037 5.77723L15.5084 6.78079C15.4914 6.81525 15.4585 6.83914 15.4205 6.84466L14.313 7.00558C14.2172 7.0195 14.179 7.13719 14.2483 7.20472L15.0497 7.98589Z" fill="#929292"/>
</svg>
