<svg width="50" height="50" viewBox="0 0 50 50" fill="none" xmlns="http://www.w3.org/2000/svg">
<g clip-path="url(#clip0_478_66558)">
<path d="M34.7061 2.11084L35.6062 6.35655L44.6154 14.6489L44.8782 14.5293L46.798 13.6611C44.2251 8.50728 39.9634 4.44478 34.7061 2.1188V2.11084Z" fill="black"/>
<path d="M34.7061 2.11084L35.6062 6.35655L44.6154 14.6489L44.8782 14.5293L46.798 13.6611C44.2251 8.50728 39.9634 4.44478 34.7061 2.1188V2.11084Z" fill="url(#paint0_linear_478_66558)"/>
<path d="M47.1489 14.3779L44.9424 15.3817V26.0318L47.6348 33.8381C48.8058 30.9307 49.3952 27.8559 49.3952 24.6856C49.3952 21.077 48.6385 17.612 47.1489 14.3779Z" fill="black"/>
<path d="M47.1489 14.3779L44.9424 15.3817V26.0318L47.6348 33.8381C48.8058 30.9307 49.3952 27.8559 49.3952 24.6856C49.3952 21.077 48.6385 17.612 47.1489 14.3779Z" fill="url(#paint1_linear_478_66558)"/>
<path d="M44.2968 26.6373L34.6106 30.4848L31.6553 42.0031L40.2105 43.9069C43.1896 41.5014 45.5873 38.4107 47.1645 34.9456L44.2968 26.6294V26.6373Z" fill="black"/>
<path d="M44.2968 26.6373L34.6106 30.4848L31.6553 42.0031L40.2105 43.9069C43.1896 41.5014 45.5873 38.4107 47.1645 34.9456L44.2968 26.6294V26.6373Z" fill="url(#paint2_linear_478_66558)"/>
<path d="M39.3748 44.5521L31.1701 42.728L20.0102 45.978L19.4287 48.8218C21.1652 49.1962 22.9336 49.3873 24.7019 49.3873C30.0549 49.3873 35.1052 47.7225 39.3748 44.5602V44.5521Z" fill="black"/>
<path d="M39.3748 44.5521L31.1701 42.728L20.0102 45.978L19.4287 48.8218C21.1652 49.1962 22.9336 49.3873 24.7019 49.3873C30.0549 49.3873 35.1052 47.7225 39.3748 44.5602V44.5521Z" fill="url(#paint3_linear_478_66558)"/>
<path d="M18.6392 48.6303L19.2128 45.8026L9.7814 37.6377H3.67969C7.04121 43.0942 12.434 47.0611 18.6392 48.6224V48.6303Z" fill="black"/>
<path d="M18.6392 48.6303L19.2128 45.8026L9.7814 37.6377H3.67969C7.04121 43.0942 12.434 47.0611 18.6392 48.6224V48.6303Z" fill="url(#paint4_linear_478_66558)"/>
<path d="M9.57475 36.8335L10.7218 26.1914L5.4087 16.9033L0.669118 18.9665C0.223039 20.8305 0 22.7502 0 24.6938C0 28.9555 1.10724 33.1454 3.20221 36.8415H9.56679L9.57475 36.8335Z" fill="black"/>
<path d="M9.57475 36.8335L10.7218 26.1914L5.4087 16.9033L0.669118 18.9665C0.223039 20.8305 0 22.7502 0 24.6938C0 28.9555 1.10724 33.1454 3.20221 36.8415H9.56679L9.57475 36.8335Z" fill="url(#paint5_linear_478_66558)"/>
<path d="M0.931641 17.9707L5.33667 16.051L13.836 6.17355L13.8679 5.91067L14.2981 2.27832C7.80603 5.31324 2.87527 11.0884 0.931641 17.9707Z" fill="black"/>
<path d="M0.931641 17.9707L5.33667 16.051L13.836 6.17355L13.8679 5.91067L14.2981 2.27832C7.80603 5.31324 2.87527 11.0884 0.931641 17.9707Z" fill="url(#paint6_linear_478_66558)"/>
<path d="M15.159 1.9038L14.665 6.04595L24.9886 8.75428L34.7546 6.26899L33.7987 1.73652C30.9071 0.581495 27.8483 0 24.7018 0C21.3881 0 18.1859 0.645221 15.159 1.91176V1.9038Z" fill="black"/>
<path d="M15.159 1.9038L14.665 6.04595L24.9886 8.75428L34.7546 6.26899L33.7987 1.73652C30.9071 0.581495 27.8483 0 24.7018 0C21.3881 0 18.1859 0.645221 15.159 1.91176V1.9038Z" fill="url(#paint7_linear_478_66558)"/>
<path d="M44.13 25.8247V15.302L35.1208 7.00977L25.3708 9.4871L24.3672 22.1525L34.3322 29.72L44.13 25.8247Z" fill="black"/>
<path d="M44.13 25.8247V15.302L35.1208 7.00977L25.3708 9.4871L24.3672 22.1525L34.3322 29.72L44.13 25.8247Z" fill="url(#paint8_linear_478_66558)"/>
<path d="M23.5708 22.0251L24.5585 9.47123L14.3625 6.80273L6.07812 16.4333L11.3355 25.6256L23.5708 22.0251Z" fill="black"/>
<path d="M23.5708 22.0251L24.5585 9.47123L14.3625 6.80273L6.07812 16.4333L11.3355 25.6256L23.5708 22.0251Z" fill="url(#paint9_linear_478_66558)"/>
<path d="M23.8651 22.7817L11.5103 26.4141L10.3633 37.0642L19.7628 45.2052L30.8192 41.987L33.8063 30.3412L23.8651 22.7817Z" fill="black"/>
<path d="M23.8651 22.7817L11.5103 26.4141L10.3633 37.0642L19.7628 45.2052L30.8192 41.987L33.8063 30.3412L23.8651 22.7817Z" fill="url(#paint10_linear_478_66558)"/>
</g>
<defs>
<linearGradient id="paint0_linear_478_66558" x1="24.6972" y1="49.3872" x2="24.6972" y2="11.2885" gradientUnits="userSpaceOnUse">
<stop stop-color="#FEC554"/>
<stop offset="1" stop-color="#FFE8BA"/>
</linearGradient>
<linearGradient id="paint1_linear_478_66558" x1="24.6977" y1="49.3871" x2="24.6977" y2="11.2884" gradientUnits="userSpaceOnUse">
<stop stop-color="#FEC554"/>
<stop offset="1" stop-color="#FFE8BA"/>
</linearGradient>
<linearGradient id="paint2_linear_478_66558" x1="24.6973" y1="49.3873" x2="24.6973" y2="11.2886" gradientUnits="userSpaceOnUse">
<stop stop-color="#FEC554"/>
<stop offset="1" stop-color="#FFE8BA"/>
</linearGradient>
<linearGradient id="paint3_linear_478_66558" x1="24.698" y1="49.3873" x2="24.698" y2="11.2886" gradientUnits="userSpaceOnUse">
<stop stop-color="#FEC554"/>
<stop offset="1" stop-color="#FFE8BA"/>
</linearGradient>
<linearGradient id="paint4_linear_478_66558" x1="24.6972" y1="49.3871" x2="24.6972" y2="11.2884" gradientUnits="userSpaceOnUse">
<stop stop-color="#FEC554"/>
<stop offset="1" stop-color="#FFE8BA"/>
</linearGradient>
<linearGradient id="paint5_linear_478_66558" x1="24.6976" y1="49.3874" x2="24.6976" y2="11.2887" gradientUnits="userSpaceOnUse">
<stop stop-color="#FEC554"/>
<stop offset="1" stop-color="#FFE8BA"/>
</linearGradient>
<linearGradient id="paint6_linear_478_66558" x1="24.6973" y1="49.3874" x2="24.6973" y2="11.2887" gradientUnits="userSpaceOnUse">
<stop stop-color="#FEC554"/>
<stop offset="1" stop-color="#FFE8BA"/>
</linearGradient>
<linearGradient id="paint7_linear_478_66558" x1="24.6979" y1="49.3872" x2="24.6979" y2="11.2885" gradientUnits="userSpaceOnUse">
<stop stop-color="#FEC554"/>
<stop offset="1" stop-color="#FFE8BA"/>
</linearGradient>
<linearGradient id="paint8_linear_478_66558" x1="24.6978" y1="49.3872" x2="24.6978" y2="11.2885" gradientUnits="userSpaceOnUse">
<stop stop-color="#FEC554"/>
<stop offset="1" stop-color="#FFE8BA"/>
</linearGradient>
<linearGradient id="paint9_linear_478_66558" x1="24.6979" y1="49.3873" x2="24.6979" y2="11.2886" gradientUnits="userSpaceOnUse">
<stop stop-color="#FEC554"/>
<stop offset="1" stop-color="#FFE8BA"/>
</linearGradient>
<linearGradient id="paint10_linear_478_66558" x1="24.6976" y1="49.3871" x2="24.6976" y2="11.2884" gradientUnits="userSpaceOnUse">
<stop stop-color="#FEC554"/>
<stop offset="1" stop-color="#FFE8BA"/>
</linearGradient>
<clipPath id="clip0_478_66558">
<rect width="50" height="50" fill="white"/>
</clipPath>
</defs>
</svg>
