<svg width="56" height="79" viewBox="0 0 56 79" fill="none" xmlns="http://www.w3.org/2000/svg">
<path d="M15.1074 32.6619C13.8061 33.1347 13.196 34.5563 13.6637 35.8436C14.1313 37.1309 15.4841 37.7538 16.7854 37.281L30.1053 32.4421C39.9037 28.8825 50.3372 33.7495 53.9288 43.1591C57.4595 52.1624 53.2933 62.1617 44.6454 66.5033L47.1212 73.3183C47.4238 74.1513 46.9549 75.0073 46.1894 75.2854L38.1516 78.2054C37.3095 78.5113 36.477 78.128 36.1744 77.2951L33.7537 70.6315L17.6781 76.4715C16.7594 76.8053 16.0035 76.3941 15.7009 75.5612L9.67657 58.9781C9.40149 58.2208 9.71727 57.4204 10.6359 57.0867L40.2335 46.2487C41.6114 45.7481 42.2489 44.4022 41.7538 43.0392C41.2861 41.7519 39.9334 41.1291 38.5555 41.6296L25.0825 46.5241C15.2841 50.0837 4.61501 45.0452 1.12143 35.4285C-2.37214 25.8118 2.55361 15.2794 12.3246 11.644L9.90384 4.9805C9.60125 4.14756 9.99358 3.31931 10.8356 3.0134L18.8735 0.0934035C19.639 -0.184691 20.548 0.170802 20.8506 1.00374L23.2713 7.66729L37.5863 2.46691C38.4284 2.161 39.1843 2.57212 39.4869 3.40506L45.5112 19.9882C45.7863 20.7454 45.4705 21.5459 44.6285 21.8518L15.1074 32.6619Z" fill="#B1EB0B"/>
</svg>
