<svg width="1809" height="419" viewBox="0 0 1809 419" fill="none" xmlns="http://www.w3.org/2000/svg">
<path d="M325.944 0C370.201 0.000109142 403.892 9.57163 427.017 28.7148C449.344 47.0604 460.508 73.3826 460.508 107.681C460.508 155.539 438.778 187.644 395.319 203.996C450.739 217.955 478.449 252.652 478.449 308.088C478.449 343.184 466.887 370.303 443.762 389.446C419.839 408.988 385.351 418.76 340.298 418.76H0V0H325.944ZM202.363 54.458C198.95 54.458 196.468 56.9237 196.468 60.3135V87.4307C156.754 87.739 125.418 119.172 125.418 158.308C125.418 197.444 157.065 229.492 196.778 229.492H251.385C256.969 229.492 261.003 233.499 261.003 238.737C261.003 244.284 256.969 248.29 251.385 248.29L131.313 248.599C127.59 248.599 125.418 251.064 125.418 254.146V321.632C125.418 325.022 127.59 327.487 131.313 327.487H196.468V354.605C196.468 357.995 198.951 360.46 202.363 360.46H234.94C238.043 360.46 240.836 357.995 240.836 354.605V326.871C277.447 322.557 305.37 292.048 304.439 255.069C303.819 216.55 272.792 185.426 233.079 185.426H179.094C173.819 185.426 169.785 181.419 169.785 176.181C169.785 170.942 173.819 166.628 179.094 166.628L298.854 166.319C302.267 166.319 304.439 163.854 304.439 160.772V93.2861C304.439 89.8964 302.267 87.4307 298.854 87.4307H240.836V60.3135C240.836 56.9237 238.043 54.458 234.94 54.458H202.363Z" fill="white"/>
<path d="M637.669 133.105V146.02H680.658C686.44 146.02 689.33 143.867 689.33 139.562C689.33 135.257 686.44 133.105 680.658 133.105H637.669ZM637.669 86.9788V99.8941H675.123C680.904 99.8941 683.795 97.7415 683.795 93.4365C683.795 89.1314 680.904 86.9788 675.123 86.9788H637.669ZM694.681 181.076H589.698V51.9232H690.253C703.906 51.9232 714.3 54.8752 721.434 60.7793C728.322 66.4374 731.766 74.5556 731.766 85.1338C731.766 99.8941 725.062 109.796 711.655 114.839C728.752 119.144 737.301 129.845 737.301 146.942C737.301 157.767 733.734 166.131 726.6 172.035C719.22 178.062 708.58 181.076 694.681 181.076Z" fill="white"/>
<path d="M794.497 116.499C794.497 133.72 806.182 142.33 829.553 142.33C852.923 142.33 864.608 133.72 864.608 116.499C864.608 99.2791 852.923 90.6689 829.553 90.6689C806.182 90.6689 794.497 99.2791 794.497 116.499ZM767.375 67.606C781.643 55.9207 802.369 50.0781 829.553 50.0781C856.736 50.0781 877.462 55.9207 891.73 67.606C905.63 79.0452 912.579 95.343 912.579 116.499C912.579 137.656 905.63 153.954 891.73 165.393C877.462 177.078 856.736 182.921 829.553 182.921C802.369 182.921 781.643 177.078 767.375 165.393C753.476 153.954 746.526 137.656 746.526 116.499C746.526 95.343 753.476 79.0452 767.375 67.606Z" fill="white"/>
<path d="M926.453 51.9232H974.424V140.485H1048.23V181.076H926.453V51.9232Z" fill="white"/>
<path d="M1108.97 51.9232H1179.09L1234.44 181.076H1184.62L1175.21 158.935H1112.85L1103.44 181.076H1053.62L1108.97 51.9232ZM1144.03 86.4253L1127.24 125.725H1160.82L1144.03 86.4253Z" fill="white"/>
<path d="M1279.72 116.499C1279.72 133.72 1291.4 142.33 1314.78 142.33C1338.15 142.33 1349.83 133.72 1349.83 116.499C1349.83 99.2791 1338.15 90.6689 1314.78 90.6689C1291.4 90.6689 1279.72 99.2791 1279.72 116.499ZM1252.6 67.606C1266.87 55.9207 1287.59 50.0781 1314.78 50.0781C1341.96 50.0781 1362.68 55.9207 1376.95 67.606C1390.85 79.0452 1397.8 95.343 1397.8 116.499C1397.8 137.656 1390.85 153.954 1376.95 165.393C1362.68 177.078 1341.96 182.921 1314.78 182.921C1287.59 182.921 1266.87 177.078 1252.6 165.393C1238.7 153.954 1231.75 137.656 1231.75 116.499C1231.75 95.343 1238.7 79.0452 1252.6 67.606Z" fill="white"/>
<path d="M1526.13 140.485H1554.36C1574.9 140.485 1585.17 132.49 1585.17 116.499C1585.17 100.509 1574.9 92.5139 1554.36 92.5139H1526.13V140.485ZM1478.16 51.9232H1554.36C1580.56 51.9232 1600.36 57.6428 1613.77 69.082C1626.69 80.0292 1633.14 95.835 1633.14 116.499C1633.14 137.164 1626.69 152.97 1613.77 163.917C1600.36 175.356 1580.56 181.076 1554.36 181.076H1478.16V51.9232Z" fill="white"/>
<path d="M1690.35 116.499C1690.35 133.72 1702.03 142.33 1725.4 142.33C1748.77 142.33 1760.46 133.72 1760.46 116.499C1760.46 99.2791 1748.77 90.6689 1725.4 90.6689C1702.03 90.6689 1690.35 99.2791 1690.35 116.499ZM1663.23 67.606C1677.49 55.9207 1698.22 50.0781 1725.4 50.0781C1752.59 50.0781 1773.31 55.9207 1787.58 67.606C1801.48 79.0452 1808.43 95.343 1808.43 116.499C1808.43 137.656 1801.48 153.954 1787.58 165.393C1773.31 177.078 1752.59 182.921 1725.4 182.921C1698.22 182.921 1677.49 177.078 1663.23 165.393C1649.33 153.954 1642.38 137.656 1642.38 116.499C1642.38 95.343 1649.33 79.0452 1663.23 67.606Z" fill="white"/>
<path d="M774.119 223.377H837.851V394.962H774.119V316.523L715.29 390.06L656.46 316.523V394.962H592.729V223.377H656.46L715.29 296.914L774.119 223.377Z" fill="white"/>
<path d="M862.267 394.962V223.377H925.999V394.962H862.267Z" fill="white"/>
<path d="M950.597 223.377H1014.33V341.036H1112.38V394.962H950.597V223.377Z" fill="white"/>
<path d="M1274.09 223.377H1337.82V394.962H1274.09V337.359H1190.75V394.962H1127.02V223.377H1190.75V280.981H1274.09V223.377Z" fill="white"/>
<path d="M1423.61 223.377H1516.75L1590.29 394.962H1524.11L1511.6 365.548H1428.75L1416.25 394.962H1350.07L1423.61 223.377ZM1470.18 269.215L1447.87 321.426H1492.49L1470.18 269.215Z" fill="white"/>
<path d="M1650.45 309.17C1650.45 332.048 1665.97 343.487 1697.02 343.487C1728.07 343.487 1743.6 332.048 1743.6 309.17C1743.6 286.292 1728.07 274.853 1697.02 274.853C1665.97 274.853 1650.45 286.292 1650.45 309.17ZM1614.42 244.212C1633.37 228.688 1660.91 220.926 1697.02 220.926C1733.14 220.926 1760.67 228.688 1779.63 244.212C1798.09 259.41 1807.33 281.062 1807.33 309.17C1807.33 337.277 1798.09 358.929 1779.63 374.127C1760.67 389.651 1733.14 397.414 1697.02 397.414C1660.91 397.414 1633.37 389.651 1614.42 374.127C1595.95 358.929 1586.72 337.277 1586.72 309.17C1586.72 281.062 1595.95 259.41 1614.42 244.212Z" fill="white"/>
<path d="M1159.21 21.9811L1157.57 23.3343C1157.52 23.7616 1157.38 24.3789 1157.14 25.186L1155.36 27.1802C1154.88 26.7054 1154.55 26.468 1154.36 26.468L1152.22 26.0407C1149.51 25.3285 1147.45 24.7112 1146.02 24.1889V24.2602C1139.7 22.5034 1135.28 21.625 1132.76 21.625C1126.01 21.625 1120.81 23.6429 1117.15 27.6787C1113.49 31.6671 1111.66 37.7445 1111.66 45.9111C1111.66 46.4809 1111.8 46.9082 1112.09 47.1931H1114.01C1125.04 47.1931 1130.6 46.8845 1130.69 46.2672C1130.79 45.6025 1130.88 44.9853 1130.98 44.4155C1131.07 43.8457 1131.36 43.4659 1131.83 43.276C1132.36 43.0386 1133.19 42.9199 1134.33 42.9199C1135.52 42.9199 1138.63 43.7033 1143.67 45.2701L1147.8 46.5521C1151.99 47.5492 1155.36 48.0477 1157.93 48.0477C1170.38 48.0477 1177.13 39.8811 1178.17 23.5479C1177.7 22.8832 1177.39 22.5271 1177.25 22.4796L1159.21 21.9811Z" fill="white"/>
<path d="M1485.39 194.184L1483.75 195.537C1483.71 195.965 1483.56 196.582 1483.33 197.389L1481.54 199.383C1481.07 198.909 1480.74 198.671 1480.55 198.671L1478.41 198.244C1475.7 197.532 1473.63 196.914 1472.21 196.392V196.463C1465.88 194.707 1461.46 193.828 1458.95 193.828C1452.2 193.828 1446.99 195.846 1443.33 199.882C1439.67 203.87 1437.84 209.948 1437.84 218.114C1437.84 218.684 1437.99 219.111 1438.27 219.396H1440.2C1451.22 219.396 1456.78 219.088 1456.88 218.47C1456.97 217.806 1457.07 217.188 1457.16 216.619C1457.26 216.049 1457.54 215.669 1458.02 215.479C1458.54 215.242 1459.37 215.123 1460.51 215.123C1461.7 215.123 1464.82 215.906 1469.85 217.473L1473.99 218.755C1478.17 219.752 1481.54 220.251 1484.11 220.251C1496.56 220.251 1503.31 212.084 1504.36 195.751C1503.88 195.086 1503.57 194.73 1503.43 194.683L1485.39 194.184Z" fill="white"/>
</svg>
