<svg width="168" height="109" viewBox="0 0 168 109" fill="none" xmlns="http://www.w3.org/2000/svg">
<path fill-rule="evenodd" clip-rule="evenodd" d="M-167.038 53.7334L-166.972 53.7336L-166.973 53.7988C-142.683 83.5457 -109.947 98.4936 -68.7641 98.6425C-54.6305 98.6936 -41.3382 96.8717 -28.8872 93.1767C-10.3971 103.115 10.5679 108.127 34.0079 108.212C75.5387 108.362 108.752 93.5004 133.649 63.6269C155.27 37.3512 166.155 3.75226 166.303 -37.1698L166.934 -211.665C167.009 -232.365 159.745 -250.069 145.143 -264.777C130.54 -279.486 112.889 -286.877 92.189 -286.952L-122.554 -287.729C-143.254 -287.804 -160.958 -280.54 -175.667 -265.937C-190.375 -251.335 -197.767 -233.684 -197.842 -212.984L-198.446 -45.8599C-198.593 -5.24225 -188.123 27.9555 -167.038 53.7334Z" fill="#002725"/>
<path fill-rule="evenodd" clip-rule="evenodd" d="M-155.396 44.2511L-155.331 44.3166C-134.029 70.3996 -105.156 83.5071 -68.7136 83.6388C-53.7538 83.6929 -39.9162 81.4163 -27.201 76.809C-9.6274 87.6577 10.7924 93.1241 34.0584 93.2082C70.849 93.3412 100.207 80.2704 122.134 53.9957C141.44 30.5383 151.161 0.131587 151.296 -37.2244L151.927 -211.719C151.987 -228.288 146.167 -242.465 134.468 -254.249C122.812 -265.989 108.7 -271.89 92.131 -271.949L-122.612 -272.726C-139.181 -272.786 -153.357 -266.988 -165.141 -255.332C-176.882 -243.633 -182.782 -229.499 -182.842 -212.93L-183.446 -45.806C-183.58 -8.79789 -174.23 21.2211 -155.396 44.2511Z" fill="#004C3D"/>
<path fill-rule="evenodd" clip-rule="evenodd" d="M-143.746 34.7693L-143.746 34.8346C-125.388 57.254 -100.358 68.521 -68.6552 68.6356C-52.6952 68.6933 -38.2901 65.7882 -25.4398 59.9202C-8.95795 72.0261 10.8942 78.121 34.1167 78.205C66.2107 78.321 91.7139 67.041 110.626 44.365C127.618 23.7259 136.175 -3.48858 136.297 -37.2786L136.928 -211.773C136.973 -224.211 132.619 -234.838 123.866 -243.654C115.113 -252.47 104.518 -256.901 92.0808 -256.946L-122.662 -257.723C-135.1 -257.767 -145.726 -253.414 -154.543 -244.661C-163.359 -235.908 -167.79 -225.313 -167.835 -212.875L-168.439 -45.7517C-168.56 -12.3096 -160.329 14.5308 -143.746 34.7693Z" fill="#368F5B"/>
<path fill-rule="evenodd" clip-rule="evenodd" d="M-132.165 25.2868L-132.1 25.2871C-116.773 44.086 -95.6068 53.5342 -68.6008 53.6319C-51.3797 53.6941 -36.3621 49.8127 -23.5483 41.9877C-22.1614 43.2974 -20.7091 44.5638 -19.1914 45.7869C-4.83846 57.3198 12.949 63.1245 34.1711 63.2013C61.5684 63.3003 83.2164 53.8329 99.115 34.799C113.792 16.9348 121.185 -7.10924 121.294 -37.3333L121.925 -211.828C121.955 -220.134 119.045 -227.212 113.195 -233.06C107.346 -238.952 100.289 -241.913 92.0267 -241.943L-122.716 -242.72C-131.022 -242.75 -138.1 -239.84 -143.948 -233.99C-149.84 -228.184 -152.801 -221.128 -152.831 -212.822L-153.435 -45.6979C-153.543 -15.8217 -146.453 7.83981 -132.165 25.2868Z" fill="#04C956"/>
<path fill-rule="evenodd" clip-rule="evenodd" d="M-120.519 15.804L-120.454 15.8043C-108.115 30.9393 -90.8122 38.5472 -68.5464 38.6277C-53.1952 38.6832 -40.1139 35.0774 -29.3025 27.8105C-26.5125 25.9506 -23.8956 23.8508 -21.4518 21.5113C-18.1207 26.3506 -14.2219 30.5395 -9.7554 34.0782C1.8222 43.4266 16.4825 48.1329 34.2255 48.197C56.9262 48.2791 74.7189 40.6025 87.6038 25.1672C99.9654 10.1215 106.194 -10.7304 106.291 -37.3885L106.922 -211.883C106.949 -219.515 99.6048 -226.913 91.9727 -226.941L-122.77 -227.717C-130.402 -227.745 -137.8 -220.4 -137.828 -212.768L-138.432 -45.6446C-138.527 -19.3779 -132.556 1.10492 -120.519 15.804ZM-62.5242 -111.451C-62.54 -107.08 -64.3152 -103.238 -67.5872 -100.379C-64.271 -97.432 -62.5891 -93.512 -62.6051 -89.0762L-62.6672 -71.9203L-52.2301 -71.8825L-51.9244 -120.349C-51.9096 -124.437 -50.8093 -128.064 -48.6234 -131.231C-51.4102 -130.241 -53.9384 -128.641 -56.2077 -126.431C-60.3539 -122.358 -62.4594 -117.365 -62.5242 -111.451ZM19.6982 -83.4948C19.684 -79.5809 18.7365 -76.1053 16.8555 -73.0679C18.9896 -73.9299 20.9727 -75.1622 22.805 -76.7646C26.9496 -80.4026 29.3581 -85.0037 30.0305 -90.5678C30.5011 -94.4148 32.2086 -97.605 35.1533 -100.138C31.9675 -103.085 30.2852 -106.875 30.301 -111.246L30.3767 -132.185L20.0048 -132.222L19.6982 -83.4948Z" fill="#B1EB0B"/>
<path d="M-123.429 -45.5787C-123.511 -22.8851 -118.665 -5.59114 -108.891 6.3023C-99.5256 17.7852 -86.0488 23.5579 -68.4616 23.6214C-43.9212 23.7101 -27.4186 12.6278 -18.9533 -9.62652C-11.8984 18.8174 5.84224 33.0903 34.2682 33.1931C52.2645 33.2582 66.1929 27.3804 76.0519 15.558C86.117 3.32739 91.1914 -14.3396 91.2749 -37.442L91.9058 -211.938L-122.824 -212.714L-123.429 -45.5787Z" fill="black"/>
</svg>
