<svg width="399" height="539" viewBox="0 0 399 539" fill="none" xmlns="http://www.w3.org/2000/svg">
<path fill-rule="evenodd" clip-rule="evenodd" d="M488.767 132.527L488.696 132.679L488.545 132.607C392.996 156.861 322.718 216.815 277.712 312.47C262.266 345.298 252.091 378.199 247.186 411.175C204.011 443.416 169.616 486.759 144 541.202C98.6139 637.665 97.1736 731.056 139.679 821.376C177.365 900.175 243.733 961.935 338.782 1006.66L744.077 1197.35C792.157 1219.97 841.225 1222.27 891.281 1204.25C941.336 1186.22 977.675 1153.17 1000.3 1105.09L1234.97 606.311C1257.6 558.231 1259.9 509.163 1241.87 459.108C1223.85 409.052 1190.8 372.713 1142.72 350.091L754.541 167.454C660.199 123.065 571.608 111.423 488.767 132.527Z" fill="#002725"/>
<path fill-rule="evenodd" clip-rule="evenodd" d="M498.201 169.904L497.978 169.984C414.193 191.261 352.387 244.221 312.562 328.866C296.213 363.613 286.504 398.276 283.435 432.856C239.137 461.978 204.276 503.559 178.85 557.598C138.644 643.051 137.217 725.531 174.571 805.037C208.211 875.393 268.413 930.984 355.179 971.807L760.475 1162.5C798.959 1180.61 838.253 1182.44 878.357 1168C918.313 1153.61 947.344 1127.18 965.451 1088.69L1200.13 589.915C1218.24 551.431 1220.12 512.16 1205.78 472.104C1191.29 432.101 1164.81 403.046 1126.32 384.939L738.146 202.301C652.188 161.858 572.206 151.059 498.201 169.904Z" fill="#004C3D"/>
<path fill-rule="evenodd" clip-rule="evenodd" d="M507.63 207.282L507.479 207.21C435.41 225.61 382.053 271.628 347.407 345.263C329.966 382.333 321.103 418.998 320.821 455.259C274.782 480.478 239.074 520.056 213.695 573.995C178.622 648.539 177.21 720.107 209.459 788.699C239.052 850.613 293.09 900.033 371.573 936.96L776.869 1127.65C805.757 1141.25 835.203 1142.64 865.207 1131.84C895.211 1121.03 917.009 1101.19 930.601 1072.3L1165.28 573.519C1178.87 544.631 1180.26 515.185 1169.46 485.181C1158.66 455.177 1138.81 433.379 1109.92 419.787L721.748 237.15C644.073 200.603 572.7 190.647 507.63 207.282Z" fill="#368F5B"/>
<path fill-rule="evenodd" clip-rule="evenodd" d="M517.135 244.507L517.064 244.658C456.705 259.932 411.77 298.932 382.257 361.658C363.437 401.657 356.182 440.806 360.492 479.105C355.941 480.911 351.42 482.917 346.928 485.121C304.532 506.008 271.737 541.098 248.545 590.39C218.604 654.025 217.156 714.658 244.199 772.288C269.846 825.807 317.77 869.082 387.971 902.112L793.267 1092.8C812.559 1101.88 832.181 1102.79 852.132 1095.52C872.184 1088.3 886.725 1075.09 895.755 1055.9L1130.43 557.122C1139.51 537.83 1140.41 518.208 1133.15 498.257C1126.03 478.253 1112.82 463.712 1093.53 454.635L705.354 271.997C635.961 239.347 573.222 230.184 517.135 244.507Z" fill="#04C956"/>
<path fill-rule="evenodd" clip-rule="evenodd" d="M526.569 281.885L526.497 282.036C477.903 294.332 441.439 326.339 417.107 378.055C400.33 413.711 394.534 448.056 399.717 481.09C401.019 489.598 403.066 497.964 405.859 506.187C390.988 508.689 377.014 513.217 363.937 519.772C329.632 536.57 302.785 565.576 283.395 606.787C258.587 659.513 257.152 709.235 279.091 755.951C300.692 801.027 342.451 838.132 404.369 867.265L809.665 1057.96C827.391 1066.3 852.568 1057.23 860.908 1039.51L1095.59 540.727C1103.93 523 1094.86 497.824 1077.13 489.483L688.959 306.846C627.95 278.141 573.82 269.82 526.569 281.885ZM759.748 554.814C749.597 550.038 742.583 541.741 739.48 531.029C729.027 535.548 718.082 535.21 707.78 530.362L667.932 511.614L656.526 535.856L768.957 589.125C778.452 593.593 785.698 600.086 790.695 608.606C791.414 601.048 790.433 593.431 787.753 585.755C782.773 571.692 773.438 561.378 759.748 554.814ZM605.543 715.797C596.452 711.52 589.393 705.546 584.366 697.876C584.057 703.776 584.774 709.726 586.515 715.727C590.485 729.315 598.578 739.908 610.794 747.506C619.234 752.773 624.805 760.205 627.506 769.803C637.817 765.587 648.458 765.782 658.61 770.559L707.245 793.442L718.58 769.351L605.543 715.797Z" fill="#B1EB0B"/>
<path d="M672.537 341.68C619.827 316.879 574.337 309.4 536.067 319.241C499.194 328.58 471.148 353.673 451.928 394.523C425.11 451.523 432.999 501.936 475.596 545.765C401.768 531.333 349.321 557.131 318.256 623.155C298.589 664.955 297.162 703.735 313.977 739.493C331.518 776.174 367.119 807.137 420.779 832.384L826.077 1023.08L1060.74 524.331L672.537 341.68Z" fill="black"/>
</svg>
