<?xml version="1.0" standalone="no"?>
<!DOCTYPE svg PUBLIC "-//W3C//DTD SVG 20010904//EN"
 "http://www.w3.org/TR/2001/REC-SVG-20010904/DTD/svg10.dtd">
<svg version="1.0" xmlns="http://www.w3.org/2000/svg"
 width="1024.000000pt" height="1024.000000pt" viewBox="0 0 1024.000000 1024.000000"
 preserveAspectRatio="xMidYMid meet">

<g transform="translate(0.000000,1024.000000) scale(0.100000,-0.100000)"
fill="#000000" stroke="none">
<path d="M4805 8220 c-79 -3 57 -7 349 -8 264 -1 477 0 475 2 -8 7 -696 13
-824 6z"/>
<path d="M5708 8203 c17 -2 47 -2 65 0 17 2 3 4 -33 4 -36 0 -50 -2 -32 -4z"/>
<path d="M4173 8183 c9 -2 25 -2 35 0 9 3 1 5 -18 5 -19 0 -27 -2 -17 -5z"/>
<path d="M6038 8183 c6 -2 18 -2 25 0 6 3 1 5 -13 5 -14 0 -19 -2 -12 -5z"/>
<path d="M3919 8160 c-225 -33 -329 -68 -357 -121 -13 -25 -13 -41 8 -225 6
-56 10 -125 8 -155 l-3 -54 -48 -3 c-67 -4 -77 7 -77 87 0 95 -14 133 -64 179
-68 62 -91 67 -346 67 -265 0 -292 -6 -363 -85 -59 -66 -69 -101 -74 -278 -17
-542 196 -1063 598 -1463 146 -145 364 -301 547 -393 28 -14 52 -32 52 -39 -1
-6 -19 -24 -40 -39 -32 -22 -40 -34 -40 -58 0 -84 99 -170 195 -170 53 0 97
16 159 59 25 17 48 31 53 31 4 -1 37 -41 73 -91 82 -114 244 -272 380 -370 58
-42 104 -80 103 -85 -1 -5 -10 -29 -19 -54 -13 -35 -15 -66 -10 -137 7 -123
21 -154 81 -182 l48 -22 -6 -167 c-11 -336 -99 -533 -293 -658 -78 -50 -84
-57 -90 -94 -8 -48 -38 -68 -144 -95 -120 -31 -140 -53 -154 -164 -8 -58 -33
-116 -63 -143 -10 -9 -44 -28 -75 -42 -31 -14 -62 -34 -67 -45 -6 -11 -11 -47
-11 -80 0 -52 4 -65 28 -91 23 -26 40 -33 107 -45 111 -19 422 -35 723 -36
154 0 250 -4 247 -10 -9 -14 39 -11 53 3 8 8 15 9 20 3 9 -13 35 -18 27 -5 -3
5 3 10 14 10 12 0 21 -4 21 -10 0 -5 16 -10 35 -10 19 0 35 3 35 8 0 4 20 8
45 8 25 1 45 -2 45 -7 0 -5 19 -9 43 -8 30 0 37 3 22 8 -11 4 138 11 330 14
307 5 432 12 563 32 82 12 122 60 122 143 -1 57 -22 84 -97 123 -81 43 -97 66
-122 184 -24 108 -42 129 -136 156 -121 35 -125 38 -152 96 -22 47 -34 58 -82
83 -122 61 -216 206 -272 419 -16 57 -22 120 -26 252 l-5 177 30 6 c44 10 69
44 83 114 14 76 7 198 -15 240 -16 31 -16 31 17 55 17 13 46 33 62 43 123 75
322 265 412 392 26 37 48 69 50 71 1 2 36 -13 78 -34 96 -49 164 -57 229 -26
50 24 106 98 106 138 0 33 -26 69 -60 83 -17 7 -30 16 -30 20 0 5 26 23 58 41
252 140 397 246 558 405 255 252 438 571 519 906 48 199 67 365 63 547 -3 141
-7 173 -24 211 -25 54 -72 103 -128 133 -39 21 -52 22 -286 21 -268 0 -287 -4
-344 -61 -49 -48 -60 -81 -60 -173 -1 -47 -5 -88 -11 -92 -5 -4 -30 -8 -55 -8
-25 0 -50 4 -56 8 -12 8 14 234 35 302 17 55 14 114 -9 143 -32 41 -167 78
-410 112 -58 8 -123 14 -145 14 -34 -1 -32 -3 20 -11 346 -52 459 -75 501
-103 22 -14 25 -22 22 -68 -3 -45 -6 -52 -25 -55 -18 -3 -220 53 -231 63 -7 7
22 75 32 75 7 0 7 3 0 10 -12 12 -161 33 -180 26 -21 -8 -17 -53 8 -76 l22
-20 -22 0 c-11 0 -155 11 -319 25 -164 14 -355 28 -426 32 -114 5 -125 8 -106
21 12 8 19 22 17 35 -3 19 -12 23 -63 29 -139 15 -400 13 -422 -4 -8 -7 -8
-16 2 -36 8 -14 12 -28 10 -30 -2 -2 -190 -15 -417 -28 -227 -13 -460 -28
-517 -34 -160 -16 -156 -16 -115 25 51 53 46 58 -51 53 -102 -5 -113 -13 -97
-65 6 -21 8 -41 4 -45 -4 -4 -49 -18 -100 -32 l-92 -25 -6 23 c-3 13 -4 38 -2
57 2 27 10 38 41 55 41 23 249 67 417 88 70 9 88 14 55 14 -27 0 -107 -8 -176
-18z m464 -127 c-18 -2 -48 -2 -65 0 -18 2 -4 4 32 4 36 0 50 -2 33 -4z m-145
-10 c-10 -2 -28 -2 -40 0 -13 2 -5 4 17 4 22 1 32 -1 23 -4z m1622 -12 c169
-12 333 -38 372 -58 l28 -13 -5 -143 c-7 -176 -13 -274 -19 -307 -3 -14 -7
-45 -10 -70 -4 -38 -27 -237 -41 -349 -2 -18 -13 -66 -24 -105 -11 -40 -22
-85 -25 -101 -12 -63 -77 -260 -126 -380 -5 -11 -14 -35 -22 -52 -7 -18 -17
-33 -21 -33 -5 0 -6 -4 -3 -9 3 -5 -5 -29 -18 -54 -14 -25 -27 -58 -29 -74 -5
-31 -37 -105 -50 -114 -5 -3 -9 -10 -9 -15 0 -12 -39 -88 -48 -94 -3 -3 -9
-12 -13 -20 -11 -25 -30 -53 -68 -100 -20 -25 -48 -64 -62 -87 -26 -42 -147
-170 -147 -156 0 3 -11 -4 -24 -17 -16 -14 -31 -20 -42 -16 -10 4 -21 1 -26
-6 -5 -9 -8 -8 -8 6 0 13 -5 16 -16 12 -12 -4 -15 -2 -10 9 5 15 -8 20 -48 15
-10 -1 -22 4 -26 10 -4 7 -20 13 -34 13 -15 0 -29 4 -32 9 -4 5 -10 5 -17 -1
-7 -5 -27 -8 -45 -7 -17 1 -32 -3 -32 -8 0 -6 -5 -4 -10 4 -6 10 -10 11 -10 3
0 -7 -12 -16 -27 -19 -16 -4 -34 -11 -40 -16 -7 -6 -19 -8 -28 -5 -8 4 -17 2
-20 -4 -4 -5 -10 -7 -15 -4 -11 7 -26 -43 -16 -52 3 -3 1 -12 -5 -19 -6 -7 -7
-19 -3 -26 21 -33 13 -73 -17 -89 -22 -11 -108 12 -140 38 -8 7 -20 13 -25 13
-11 0 -76 70 -66 70 4 0 -11 9 -33 19 -22 10 -48 17 -57 15 -10 -1 -20 6 -23
17 -4 10 -11 19 -16 19 -5 0 -29 28 -54 63 -25 34 -49 67 -55 74 -5 7 -10 16
-10 21 0 5 -9 17 -20 27 -11 10 -20 23 -20 28 0 6 -11 25 -25 43 -14 18 -25
35 -25 38 0 3 -16 41 -36 83 -20 43 -45 101 -56 128 -11 28 -33 79 -50 115
-29 62 -113 307 -122 353 -8 44 -59 187 -66 187 -5 0 -6 9 -3 20 3 11 0 20 -6
20 -6 0 -10 3 -10 8 4 25 -3 51 -17 56 -8 3 -12 2 -9 -4 3 -6 2 -10 -4 -10
-11 0 -7 -133 8 -235 6 -38 13 -88 16 -110 11 -76 70 -328 97 -409 11 -33 21
-65 22 -71 1 -5 9 -30 19 -55 123 -332 158 -432 152 -438 -10 -10 -65 59 -97
121 -58 114 -158 329 -158 340 -1 16 -39 85 -40 71 0 -5 10 -48 21 -95 38
-150 162 -416 257 -551 87 -124 213 -283 274 -345 34 -35 57 -63 53 -63 -32 0
-248 209 -336 325 -103 136 -269 410 -335 552 -150 324 -267 830 -308 1328
-23 276 -38 546 -35 590 4 37 7 41 44 54 22 8 86 15 143 16 59 2 108 7 116 14
34 28 252 56 561 71 218 11 1176 4 1365 -9z m143 12 c-13 -2 -35 -2 -50 0 -16
2 -5 4 22 4 28 0 40 -2 28 -4z m497 -94 c36 -5 74 -16 86 -24 19 -12 20 -19
13 -67 -4 -29 -15 -177 -24 -328 -33 -571 -89 -895 -217 -1258 -35 -99 -107
-271 -121 -289 -5 -7 -30 -54 -56 -105 -144 -288 -313 -536 -453 -663 -71 -64
-187 -150 -193 -143 -3 3 21 29 53 59 73 70 149 165 224 279 39 61 172 321
183 360 4 14 19 48 33 75 49 97 148 379 207 585 67 239 97 446 110 770 9 213
15 344 20 390 2 25 9 113 16 195 6 83 16 156 21 163 13 15 16 15 98 1z m-3193
-53 c28 -14 59 -36 69 -50 28 -43 36 -112 20 -172 -8 -31 -10 -56 -5 -61 6 -6
1 -17 -11 -28 -30 -27 -24 -40 6 -16 22 17 41 21 110 21 45 0 85 -4 88 -9 11
-17 19 -99 12 -125 -5 -22 -10 -24 -44 -21 -20 2 -63 5 -95 6 -49 2 -62 6 -90
33 -17 17 -31 35 -29 39 1 5 -2 6 -8 2 -13 -8 -13 -96 0 -129 5 -15 25 -34 45
-43 41 -20 47 -37 8 -22 -38 14 -91 66 -115 113 -18 35 -19 45 -9 91 7 29 25
79 41 111 47 94 34 163 -33 179 -13 4 -114 5 -224 3 -197 -3 -202 -4 -227 -27
-14 -13 -31 -40 -38 -60 -17 -48 -16 -304 1 -401 72 -412 239 -730 540 -1030
197 -196 487 -392 617 -416 72 -13 104 -52 104 -127 0 -43 -74 -111 -172 -159
-83 -41 -113 -47 -122 -22 -12 32 -4 44 54 75 82 43 112 75 108 113 -3 27 -14
35 -136 98 -349 179 -611 404 -804 692 -185 277 -282 566 -309 925 -17 229 -4
324 55 382 55 55 72 59 316 59 217 0 227 -1 277 -24z m4163 0 c84 -44 110
-114 110 -292 0 -368 -83 -682 -257 -973 -164 -274 -325 -441 -613 -634 -100
-67 -289 -170 -356 -193 -29 -10 -31 -15 -28 -50 3 -42 20 -59 109 -106 38
-20 51 -32 53 -52 2 -15 -2 -28 -10 -31 -33 -13 -154 49 -245 124 -37 30 -43
41 -43 74 0 72 41 122 96 119 62 -5 317 140 480 273 230 187 397 393 521 640
125 248 183 483 185 750 2 140 -10 195 -46 231 -41 41 -58 44 -269 44 -198 0
-204 -1 -224 -22 -40 -45 -38 -57 32 -238 19 -46 19 -114 0 -149 -18 -36 -80
-85 -140 -112 -55 -24 -73 -18 -24 8 75 40 138 128 110 156 -6 6 -11 21 -11
34 0 30 -14 29 -28 -1 -13 -29 -83 -54 -162 -58 -45 -2 -56 -7 -62 -23 -7 -25
-10 122 -2 151 5 19 15 22 90 27 46 2 90 10 97 16 11 8 11 24 -1 83 -15 71
-14 75 8 126 41 94 69 102 360 99 208 -2 239 -4 270 -21z m140 -333 c0 -94 -4
-193 -9 -220 -6 -26 -15 -79 -21 -118 -14 -91 -51 -249 -60 -255 -4 -3 -17
-36 -29 -75 -21 -64 -47 -125 -55 -125 -6 0 68 205 75 208 5 2 9 13 9 25 0 12
7 47 15 77 34 127 57 314 59 485 0 94 -2 184 -6 200 l-7 30 14 -30 c10 -22 14
-75 15 -202z m-4972 12 c-2 -107 -6 -195 -9 -195 -17 0 -19 193 -3 338 11 100
15 51 12 -143z m4742 165 c17 -27 11 -32 -27 -25 -55 11 -321 7 -343 -5 -27
-14 -50 -12 -50 5 0 17 36 39 53 32 7 -3 30 -1 52 3 22 4 100 7 173 6 106 -1
135 -4 142 -16z m-4206 -1 c19 -4 -23 -7 -102 -8 -89 -1 -131 2 -127 9 7 12
180 11 229 -1z m-249 -8 c-15 -13 -83 -26 -70 -13 6 6 24 12 40 15 17 2 32 5
35 6 2 0 0 -3 -5 -8z m-125 -221 c-5 -161 -5 -163 -14 -86 -9 79 -4 205 9 239
4 10 8 17 9 15 0 -2 -1 -77 -4 -168z m4630 124 c0 -8 -4 -14 -10 -14 -5 0 -10
9 -10 21 0 11 5 17 10 14 6 -3 10 -13 10 -21z m-4231 -10 c30 -25 31 -28 31
-112 0 -102 18 -151 73 -199 41 -36 134 -68 226 -79 39 -4 62 -12 65 -21 4 -8
13 -80 21 -160 36 -336 117 -683 226 -966 28 -71 48 -131 45 -134 -8 -9 -150
72 -254 144 -114 79 -343 302 -424 413 -207 284 -321 594 -335 910 -9 204 12
229 194 230 95 0 103 -2 132 -26z m4107 7 c34 -15 45 -28 60 -66 16 -44 17
-59 6 -179 -24 -259 -89 -469 -220 -711 -74 -138 -238 -329 -395 -462 -144
-122 -393 -280 -413 -261 -3 4 8 37 24 75 135 308 234 698 273 1078 6 61 14
113 17 116 4 4 40 11 79 17 78 11 173 49 212 85 54 50 74 144 50 230 -9 33 -8
42 8 59 28 31 50 37 158 37 77 0 109 -4 141 -18z m154 -82 c0 -90 -12 -194
-20 -178 -10 20 1 274 11 258 5 -8 9 -44 9 -80z m-845 -34 c1 -30 1 -31 -2 -6
-3 26 -7 31 -14 20 -6 -9 -8 4 -8 41 1 54 1 54 11 20 5 -19 11 -53 13 -75z
m811 -57 c-4 -73 -12 -162 -17 -198 -16 -104 -61 -280 -70 -274 -9 5 -4 44 11
79 19 44 40 168 50 300 15 181 20 225 27 225 3 0 2 -60 -1 -132z m-4592 42
c13 -178 27 -274 56 -385 17 -64 33 -121 36 -126 3 -5 1 -9 -5 -9 -19 0 -63
170 -86 335 -13 92 -21 274 -11 264 2 -2 7 -38 10 -79z m799 -2 c3 -21 1 -40
-4 -43 -5 -4 -9 2 -9 12 0 10 -3 36 -6 58 -3 27 -2 35 4 25 5 -8 12 -32 15
-52z m2958 -48 l-9 -45 -1 37 c-1 20 2 44 6 54 11 29 14 2 4 -46z m844 -165
c-4 -31 -9 -54 -12 -51 -3 2 -1 30 2 61 4 31 9 54 12 51 3 -2 1 -30 -2 -61z
m-4784 38 c1 -10 3 -29 5 -43 2 -14 5 -39 7 -55 2 -17 6 -35 8 -40 3 -6 7 -30
8 -55 2 -25 6 -49 11 -55 14 -18 23 -58 11 -51 -15 10 -39 96 -51 186 -5 41
-13 87 -16 103 -3 16 -1 27 5 27 6 0 12 -8 12 -17z m822 -20 c-7 -2 -21 -2
-30 0 -10 3 -4 5 12 5 17 0 24 -2 18 -5z m-759 -309 c3 -8 2 -12 -4 -9 -6 3
-10 10 -10 16 0 14 7 11 14 -7z m4606 -69 c-16 -42 -24 -22 -9 22 7 21 14 31
16 22 2 -8 -1 -28 -7 -44z m-4581 5 c6 -19 7 -30 2 -25 -5 6 -13 24 -17 40 -9
39 0 30 15 -15z m131 -290 c6 -11 8 -20 6 -20 -3 0 -10 9 -16 20 -6 11 -8 20
-6 20 3 0 10 -9 16 -20z m3369 -1085 c42 -30 32 -32 -26 -4 -48 23 -74 54 -66
77 5 11 12 8 32 -16 14 -18 41 -43 60 -57z m-1103 -284 c31 5 74 -2 68 -12 -4
-7 0 -9 14 -5 11 4 46 0 76 -9 40 -12 60 -13 75 -6 14 8 22 7 31 -4 9 -11 10
-15 1 -15 -7 0 -10 -4 -6 -9 3 -5 -10 -40 -29 -78 -18 -37 -37 -78 -40 -89 -5
-16 -17 -23 -53 -28 -59 -8 -203 -8 -282 0 -59 7 -63 9 -80 43 -10 20 -26 62
-35 94 -16 56 -16 60 1 73 10 7 27 14 38 15 11 1 39 3 63 4 24 2 49 8 57 15 7
6 27 12 44 12 19 1 28 5 24 12 -4 6 0 5 9 -2 9 -7 20 -12 24 -11z m-366 -439
c0 -42 3 -101 6 -129 l7 -53 -31 0 c-21 0 -32 6 -37 19 -8 27 -22 187 -19 237
2 65 13 73 46 35 26 -29 28 -38 28 -109z m372 117 c18 -8 32 -7 46 0 12 6 43
11 70 11 49 0 49 0 56 -37 11 -70 7 -218 -7 -237 -11 -15 -31 -19 -123 -22
-60 -1 -146 -4 -191 -6 -110 -3 -113 0 -114 127 0 55 5 114 11 130 6 17 11 32
10 34 -9 23 182 23 242 0z m374 -10 c41 -45 26 -271 -19 -289 -40 -15 -50 8
-36 85 6 39 9 100 6 140 -4 40 -4 75 0 79 12 11 30 6 49 -15z m-426 -347 c0
-12 65 -33 83 -26 8 3 18 12 21 20 3 8 18 14 34 14 46 0 50 -16 97 -365 18
-135 41 -252 63 -325 19 -64 71 -149 101 -168 12 -7 19 -17 16 -22 -7 -11
-704 -14 -767 -4 l-36 6 36 32 c92 78 104 111 142 401 13 99 19 130 30 160 6
15 14 75 20 135 12 142 17 150 97 150 35 0 63 -4 63 -8z m-226 -28 c4 -15 7
-86 7 -158 1 -326 -128 -640 -283 -692 -39 -13 -47 -19 -38 -29 15 -19 -21
-38 -55 -29 -28 7 -31 14 -13 32 9 9 7 12 -11 12 -36 0 -15 18 64 55 133 63
215 182 271 390 24 89 27 119 28 272 1 122 4 173 12 173 7 0 15 -12 18 -26z
m536 19 c1 -5 3 -60 5 -123 12 -292 77 -503 196 -642 50 -57 104 -98 130 -98
8 0 -3 10 -23 22 -21 12 -38 26 -38 30 0 8 55 -17 112 -52 l30 -18 -107 -1
c-106 -1 -107 -1 -135 29 -74 79 -127 180 -159 304 -40 154 -64 501 -37 544 8
13 26 16 26 5z m-113 -894 c78 1 165 0 192 -4 47 -6 51 -9 51 -34 0 -42 42
-75 95 -76 36 -1 42 1 33 12 -7 8 -7 17 -2 22 12 12 161 -6 204 -24 19 -8 62
-19 94 -25 65 -11 83 -20 45 -21 -22 -1 -22 -1 5 -9 51 -16 63 -35 71 -113 12
-126 59 -197 135 -203 22 -2 53 -10 68 -19 l27 -15 -35 0 c-19 0 -125 -5 -235
-12 -248 -16 -1706 -16 -1805 -1 -51 8 -57 11 -27 12 29 1 45 9 75 40 20 21
64 52 97 68 129 65 143 78 155 146 7 33 4 40 -16 54 -28 18 -176 29 -247 19
l-45 -7 -13 -106 c-11 -91 -17 -112 -44 -152 -35 -51 -59 -59 -165 -60 -64 -1
-58 10 19 36 84 28 110 68 126 187 6 52 17 102 24 110 6 8 49 24 94 36 45 11
103 30 129 41 26 10 68 20 95 22 43 2 48 0 51 -20 2 -15 -5 -26 -25 -38 l-28
-16 40 5 c64 7 143 30 159 46 14 14 23 43 25 77 2 26 66 32 251 25 102 -4 249
-5 327 -3z m403 -19 c0 -5 -11 -10 -24 -10 -14 0 -28 5 -31 10 -4 6 7 10 24
10 17 0 31 -4 31 -10z m-1542 -497 c-10 -2 -28 -2 -40 0 -13 2 -5 4 17 4 22 1
32 -1 23 -4z m-163 -93 c0 -76 -8 -90 -38 -67 -12 8 -20 32 -24 69 -8 75 -2
89 34 79 27 -7 28 -9 28 -81z m2324 74 c9 -3 10 -8 3 -17 -6 -7 -12 -40 -14
-72 l-3 -60 -35 0 -35 0 -5 75 c-3 41 -2 78 2 81 8 5 61 1 87 -7z m-426 -27
c-100 -11 -179 -39 -176 -63 1 -10 -4 -22 -10 -26 -6 -4 1 -10 18 -14 26 -6
27 -8 10 -15 -11 -4 -64 -8 -117 -8 l-97 -1 -16 29 c-9 19 -11 32 -5 36 23 14
6 23 -65 34 -95 14 -285 15 -285 1 0 -6 -33 -10 -80 -10 -44 0 -80 -4 -80 -9
0 -5 16 -19 35 -32 81 -55 46 -64 -240 -63 -242 2 -268 7 -263 56 3 31 -8 42
-67 73 -5 3 -57 9 -115 13 -62 5 246 8 760 8 486 0 834 -4 793 -9z"/>
<path d="M5058 7453 c-34 -37 -63 -96 -78 -163 -19 -85 -19 -83 -33 -72 -18
16 -130 42 -176 42 -74 0 -121 -41 -121 -106 0 -66 81 -154 176 -190 24 -9 44
-21 44 -27 0 -5 -22 -44 -49 -86 -48 -76 -81 -153 -81 -192 0 -11 13 -34 30
-50 38 -39 45 -38 220 49 3 1 14 -30 24 -69 34 -131 113 -186 170 -119 22 27
66 145 66 179 0 7 15 1 33 -13 46 -36 117 -66 154 -66 62 0 90 75 59 161 -7
20 -36 69 -64 111 -29 41 -52 78 -52 82 0 4 17 14 37 23 101 42 173 119 173
185 0 86 -49 124 -147 116 -33 -3 -82 -15 -108 -27 -56 -25 -60 -22 -68 49 -7
55 -47 142 -85 183 -19 20 -35 27 -62 27 -27 0 -43 -7 -62 -27z m93 -118 c11
-25 21 -71 22 -102 l2 -57 -59 -1 -58 0 7 58 c3 33 11 71 16 85 10 25 37 62
46 62 2 0 13 -20 24 -45z m-275 -189 c64 -30 69 -38 49 -76 -15 -29 -16 -30
-44 -15 -29 14 -101 91 -101 107 0 15 45 8 96 -16z m584 9 c0 -33 -92 -125
-124 -125 -11 0 -42 68 -34 75 2 2 28 15 58 29 51 24 100 34 100 21z m-267
-99 c14 -13 29 -36 33 -51 7 -30 -7 -90 -21 -91 -6 0 -18 -4 -28 -8 -10 -5
-26 -2 -41 7 -22 15 -25 15 -41 -3 -23 -26 -37 -25 -63 3 -43 46 -34 113 20
151 36 25 110 21 141 -8z m-218 -230 c24 -36 25 -40 10 -56 -21 -23 -122 -76
-130 -69 -8 9 31 94 61 135 15 19 28 33 30 32 1 -2 15 -21 29 -42z m358 -3
c33 -50 62 -111 55 -119 -6 -6 -89 34 -122 58 -18 14 -18 16 3 56 12 23 25 42
30 42 4 0 20 -17 34 -37z m-170 -100 c6 -13 -24 -133 -34 -133 -16 0 -53 115
-43 132 6 10 72 11 77 1z"/>
<path d="M4030 6155 c0 -8 4 -15 8 -15 5 0 9 7 9 15 0 8 -4 15 -9 15 -4 0 -8
-7 -8 -15z"/>
<path d="M6850 7561 c0 -5 7 -15 17 -22 15 -13 15 -12 4 9 -12 23 -21 28 -21
13z"/>
<path d="M5790 3480 c-70 -10 -120 -35 -120 -60 0 -56 71 -124 180 -172 30
-14 61 -32 69 -41 7 -10 19 -17 26 -17 7 0 18 -7 25 -15 8 -9 30 -15 57 -15
l45 0 -31 35 c-35 40 -38 49 -46 160 -8 111 -12 122 -47 129 -36 7 -96 6 -158
-4z"/>
<path d="M4933 2883 c9 -2 23 -2 30 0 6 3 -1 5 -18 5 -16 0 -22 -2 -12 -5z"/>
<path d="M5568 2883 c7 -3 16 -2 19 1 4 3 -2 6 -13 5 -11 0 -14 -3 -6 -6z"/>
</g>
</svg>
